<svg xmlns="http://www.w3.org/2000/svg" height="401" viewBox="0 0 751 401" width="751"><path fill="#fff" d="M0 0h751v401H0z"/><g stroke="#fff"><g stroke-width="2"><path d="M1 301h99v99H1zM101 301h99v99h-99zM201 301h99v99h-99zM201 201h99v99h-99zM101 101h99v99h-99z"/></g><path fill="#0b692d" d="M101 201h99v99h-99z"/><g stroke-width="2"><path d="M1 201h99v99H1zM1 101h99v99H1z"/><path fill="#052d13" d="M301 301h99v99h-99z"/><path d="M301 201h99v99h-99zM301 101h99v99h-99zM1 1h99v99H1z"/><path fill="#0f9640" d="M101 1h99v99h-99z"/><path d="M201 1h99v99h-99z"/></g></g><g stroke="#fff" stroke-width="2"><path d="M301 1h99v99h-99z"/><path fill="#074b20" d="M201 101h99v99h-99z"/><path fill="#0b692d" d="M551 201h99v99h-99z"/><path fill="#052d14" d="M651 201h99v99h-99z"/><path fill="#074b20" d="M651 101h99v99h-99z"/><path fill="#0f9540" d="M551 101h99v99h-99z"/></g><path stroke-linejoin="round" d="M450 200.5l10-10m30 10h-40l10 10" stroke="#000" stroke-width="4" fill="none"/></svg>